PathFileType	4	(X/Y/Z)	E-squat_0-154.trc
DataRate	CameraRate	NumFrames	NumMarkers	Units	OrigDataRate	OrigDataStartFrame	OrigNumFrames
30	30	5	22	m	30	134	154
Frame#	Time	Hip			RHip			RKnee			RAnkle			RBigToe			RSmallToe			RHeel			LHip			LKnee			LAnkle			LBigToe			LSmallToe			LHeel			Neck			Head			Nose			RShoulder			RElbow			RWrist			LShoulder			LElbow			LWrist			
		X1	Y1	Z1	X2	Y2	Z2	X3	Y3	Z3	X4	Y4	Z4	X5	Y5	Z5	X6	Y6	Z6	X7	Y7	Z7	X8	Y8	Z8	X9	Y9	Z9	X10	Y10	Z10	X11	Y11	Z11	X12	Y12	Z12	X13	Y13	Z13	X14	Y14	Z14	X15	Y15	Z15	X16	Y16	Z16	X17	Y17	Z17	X18	Y18	Z18	X19	Y19	Z19	X20	Y20	Z20	X21	Y21	Z21	X22	Y22	Z22	
134	4.466666666666667	-0.02178003134802199	0.4996089656023831	-0.16352062828974634	-0.12765890195557403	0.4934458495861586	-0.1691601876206108	-0.13607123869181667	0.34632866144487434	0.2057334486563386	-0.14289726310061823	0.003229305322231739	0.028400636699541803	-0.11846391172478585	-0.07111992308456419	0.19247349419729293	-0.17848617753634546	-0.07246143330219815	0.16338606677780726	-0.12692093556971204	-0.053194402910845554	-0.026991139801912166	0.0802094499869245	0.48992086491266734	-0.1287411371594703	0.1369373663168974	0.3216738599463488	0.2017835907935594	0.12883927882156657	0.0014736072988108758	0.018875292099463634	0.14014242330227952	-0.08020146890346153	0.17508296234548376	0.19146417997328186	-0.07317826324440442	0.1487900172611826	0.1075633716675352	-0.05311822012566816	-0.05491956494848314	0.006227935167001697	0.8123329767582528	0.3160386195323919	0.01720230299494531	1.0132440899999917	0.4420977967936613	0.010236607836020177	0.8909561265055008	0.47382134030639866	-0.15370307452224766	0.7543684954785556	0.2683608759142488	-0.24881861082742757	0.5208701448452397	0.1252541309281301	-0.28648327028567105	0.28134228409525297	0.11749739943868383	0.15946604024108957	0.7547032411126178	0.2667469081385722	0.23103576088042618	0.498130772120533	0.09142578436321908	0.2702663725257277	0.25978081970242073	0.08792976060486271	
135	4.5	-0.021085115553686373	0.4968771341132668	-0.1658506576158249	-0.12693341541965214	0.49166944519657174	-0.1706898317587422	-0.13725549846548615	0.35078318946405956	0.20369892320520191	-0.1429790256451126	0.003330416088652881	0.027648704008219258	-0.11737722745384092	-0.07082421442130897	0.19257848879989076	-0.17887234365161725	-0.07225709714266991	0.16334274185862796	-0.1288086737976469	-0.05344025161741195	-0.02702916154206872	0.07994663587650486	0.4874743438761314	-0.13427294186905853	0.13572561164972063	0.32273510345446926	0.20129368167278067	0.12836523681001988	0.0021050490638587823	0.014794523987841354	0.13988594280125796	-0.08027643236343199	0.17205184890991215	0.19133080532849722	-0.0723660220729288	0.1470567195385321	0.1073195005205543	-0.05117927879455656	-0.057775999572025824	0.005558712316197464	0.8071517227471857	0.31621675185785475	0.01604395087665755	1.007405302033286	0.4440775414993301	0.010198929891805875	0.8859822323455769	0.47325221806348283	-0.1548709452654842	0.7488055605469865	0.270243425573237	-0.24802626468343228	0.5182936716904796	0.12693057757000112	-0.28599362775555587	0.2783607125124213	0.11915726731213326	0.15782051475778014	0.7516285157249696	0.26280016129962436	0.23052127358432947	0.4971093340264239	0.08796993625967196	0.26930509459491636	0.26478272790126406	0.08621310811871345	
136	4.533333333333333	-0.02057925163798174	0.4999934938510283	-0.16624910223819397	-0.12681373496105483	0.49580986063750376	-0.16969784662627949	-0.13754774092352393	0.353939930863889	0.20249685862868036	-0.14260599581822608	0.003042511906437076	0.02737494282698722	-0.1169028435172177	-0.07021174815622865	0.19263124513416036	-0.17925165342824365	-0.07241534155347303	0.16316828090408542	-0.12950693616242234	-0.05390297115188392	-0.02697947827593803	0.08057508462552565	0.49163460387515867	-0.13873811267373254	0.132827004565444	0.3258389745913152	0.19951229096980586	0.1277036411737722	0.002995302620754807	0.012992063196314293	0.13946924039261588	-0.08005711490109743	0.17083985505993549	0.19076351809858152	-0.0717547957850317	0.1454616352865443	0.10705570701671346	-0.04981233787311123	-0.05889053622156882	0.00424181001071291	0.8124383607651395	0.3133713684633028	0.013836087356762177	1.012179937737775	0.4448462186302768	0.009732255170915515	0.8919308488316158	0.4702938071600545	-0.15648193311559455	0.7527145849524959	0.26977256855339465	-0.24727816726599386	0.5242262977892961	0.12605368485695428	-0.28506574430037473	0.28461326254786806	0.1185003762118849	0.15570721255172204	0.7591245421829782	0.25733192866580645	0.22855021688381616	0.5064012230827839	0.08583106754958719	0.26688832620138664	0.2764566014721011	0.08390847110225044	
137	4.566666666666666	-0.021366677049267514	0.5082218657245992	-0.16439294428737225	-0.12791983905660004	0.5050857699141187	-0.16742987418558494	-0.13621743131292505	0.35384581700113726	0.20106996143541442	-0.14193382540043223	0.0018212722714100367	0.02727273605583954	-0.11705867418871138	-0.06966400244921511	0.1933993250655727	-0.17923686388290352	-0.07279963460853524	0.16298143097537293	-0.12889198166203222	-0.05489797502403845	-0.027382182927368763	0.08114001679531387	0.5014892496814198	-0.13709955814882616	0.13000218170317052	0.32925938657429904	0.19690395916432538	0.12772103334793156	0.004220963811403354	0.016316825550150106	0.14036478771458832	-0.07931477840476771	0.17307139340339164	0.19045458947064028	-0.07089884003315276	0.14652555686254357	0.10737085893382561	-0.048422195811413	-0.05616658497712607	0.002178571632821088	0.828131605910816	0.3080844694938542	0.010735261248057522	1.0276367119984984	0.4422404518956754	0.009044707482222157	0.9087049150843887	0.46510254228556874	-0.15841092618933117	0.7673882160968665	0.2659470571829697	-0.24640145481213574	0.5374126993772872	0.12318712043069013	-0.2836766882873586	0.29844194956094794	0.11580264830570405	0.15375946094162576	0.7752878315359946	0.25387078209213354	0.22538657638916731	0.522646158832414	0.08565595210605058	0.26368120215624447	0.2903689874915541	0.08122717665706532	
138	4.6	-0.02280951502733098	0.521071715578136	-0.16149346763066458	-0.12959422829566808	0.5191582343202378	-0.16556025330259172	-0.13337240375730142	0.35155597079792966	0.19833681588179772	-0.14107659762513552	-0.00041244748416106565	0.026440140879065373	-0.11737435969183813	-0.06970160658776366	0.19414086092757651	-0.17879979365885065	-0.07340929649956338	0.16234736222019056	-0.12802658625793806	-0.05614429296209769	-0.02849244600401575	0.08137717817628075	0.5165495197541468	-0.13032898451812702	0.1280405327072608	0.33231839867258217	0.19343533358935694	0.12825897399579236	0.005510307463787079	0.022761218064060184	0.14205694766537283	-0.07865250703252065	0.1775256422097815	0.19025042538846143	-0.070155183760011	0.15007507296189015	0.10876418685744663	-0.04624810507346308	-0.05037096307681858	0.0003683005165506578	0.8543402683988502	0.30216428672545326	0.007560563293834916	1.0542080403992402	0.4352023082589246	0.008235157951641106	0.935892613393305	0.4592168416742475	-0.16028132904459527	0.7926543634667025	0.25998450690733954	-0.2444903068011762	0.5579412995605251	0.11942333832228838	-0.28182822503925126	0.3199863432443326	0.1115974585455089	0.1524493207301732	0.7983758794584709	0.254742422653114	0.22155040376600862	0.5459979326155864	0.08775861007675537	0.25972212306788567	0.3092510928412213	0.07780097096647928	
